# xmcd
#
# Track frame offsets: 
#        150
#        26370
#        45570
#        68870
#        92102
#        117115
#        137005
#        167385
#        194760
#        224225
#
# Disc length: 3690 seconds
#
# Revision: 5
# Processed by: cddbd v1.5.2PL0 Copyright (c) Steve Scherf et al.
# Submitted via: ExactAudioCopy v1.0b3
#
DISCID=8f0e680a
DTITLE=Westminster Cathedral Choir - Treasures of the Spanish Renaissa
DTITLE=nce
DYEAR=1985
DGENRE=Classical
TTITLE0=Francisco Guerrero (1528-1599) - Surge propera amica mea
TTITLE1=Francisco Guerrero (1528-1599) - O altitudo divitiarum
TTITLE2=Francisco Guerrero (1528-1599) - O Domine Iesu Christe
TTITLE3=Francisco Guerrero (1528-1599) - O sacrum convivium
TTITLE4=Francisco Guerrero (1528-1599) - Ave Virgo sanctissima
TTITLE5=Francisco Guerrero (1528-1599) - Regina caeli laetare
TTITLE6=Alonso Lobo (1555-1617) - Versa est in luctum
TTITLE7=Alonso Lobo (1555-1617) - Ave Maria
TTITLE8=Alonso Lobo (1555-1617) - O quam suavis est, Domine
TTITLE9=Sebastian de Vivanco (1551-1622) - Magnificat octavi toni
EXTD=
EXTT0=
EXTT1=
EXTT2=
EXTT3=
EXTT4=
EXTT5=
EXTT6=
EXTT7=
EXTT8=
EXTT9=
PLAYORDER=
